<svg xmlns="http://www.w3.org/2000/svg" xmlns:xlink="http://www.w3.org/1999/xlink" width="700" zoomAndPan="magnify" viewBox="0 0 525 299.999988" height="400" preserveAspectRatio="xMidYMid meet" version="1.0"><defs><g/></defs><g fill="#000000" fill-opacity="1"><g transform="translate(0.0000105, 224.859177)"><g><path d="M 59.84375 -40.8125 L 134.875 -40.8125 C 140.9375 -40.8125 145.347656 -40.125 148.109375 -38.75 C 150.867188 -37.375 152.707031 -35.210938 153.625 -32.265625 C 154.539062 -29.328125 155 -25.421875 155 -20.546875 C 155 -15.671875 154.539062 -11.757812 153.625 -8.8125 C 152.707031 -5.875 151.144531 -3.859375 148.9375 -2.765625 C 145.445312 -0.921875 140.664062 0 134.59375 0 L 35.296875 0 C 22.429688 0 14.894531 -3.492188 12.6875 -10.484375 C 11.582031 -13.421875 11.03125 -18.109375 11.03125 -24.546875 L 11.03125 -177.90625 C 11.03125 -182.132812 11.164062 -185.304688 11.4375 -187.421875 C 11.71875 -189.535156 12.59375 -191.96875 14.0625 -194.71875 C 16.632812 -199.6875 23.804688 -202.171875 35.578125 -202.171875 C 48.453125 -202.171875 56.082031 -198.769531 58.46875 -191.96875 C 59.382812 -188.84375 59.84375 -184.0625 59.84375 -177.625 Z M 59.84375 -40.8125 "/></g></g></g><g fill="#000000" fill-opacity="1"><g transform="translate(64.021822, 175.2875)"><g><path d="M 20.171875 -16.453125 L 48.78125 -16.453125 C 50.207031 -16.453125 51.273438 -16.40625 51.984375 -16.3125 C 52.703125 -16.21875 53.523438 -15.921875 54.453125 -15.421875 C 56.128906 -14.554688 56.96875 -12.140625 56.96875 -8.171875 C 56.96875 -3.835938 55.816406 -1.300781 53.515625 -0.5625 C 52.460938 -0.1875 50.851562 0 48.6875 0 L 11.890625 0 C 7.554688 0 5.019531 -1.175781 4.28125 -3.53125 C 3.90625 -4.519531 3.71875 -6.097656 3.71875 -8.265625 L 3.71875 -59.9375 C 3.71875 -63.09375 4.304688 -65.242188 5.484375 -66.390625 C 6.660156 -67.535156 8.890625 -68.109375 12.171875 -68.109375 L 48.78125 -68.109375 C 50.207031 -68.109375 51.273438 -68.0625 51.984375 -67.96875 C 52.703125 -67.875 53.523438 -67.582031 54.453125 -67.09375 C 56.128906 -66.21875 56.96875 -63.800781 56.96875 -59.84375 C 56.96875 -55.507812 55.816406 -52.96875 53.515625 -52.21875 C 52.460938 -51.851562 50.851562 -51.671875 48.6875 -51.671875 L 20.171875 -51.671875 L 20.171875 -42.28125 L 38.5625 -42.28125 C 39.988281 -42.28125 41.054688 -42.234375 41.765625 -42.140625 C 42.484375 -42.046875 43.304688 -41.75 44.234375 -41.25 C 45.898438 -40.382812 46.734375 -37.972656 46.734375 -34.015625 C 46.734375 -29.671875 45.554688 -27.128906 43.203125 -26.390625 C 42.148438 -26.015625 40.539062 -25.828125 38.375 -25.828125 L 20.171875 -25.828125 Z M 20.171875 -16.453125 "/></g></g></g><g fill="#000000" fill-opacity="1"><g transform="translate(123.304896, 175.2875)"><g><path d="M 43.015625 -63.28125 L 68.109375 -11.421875 C 69.160156 -9.316406 69.6875 -7.738281 69.6875 -6.6875 C 69.6875 -4.457031 67.890625 -2.445312 64.296875 -0.65625 C 62.191406 0.394531 60.535156 0.921875 59.328125 0.921875 C 58.117188 0.921875 57.128906 0.640625 56.359375 0.078125 C 55.585938 -0.472656 55.03125 -1.054688 54.6875 -1.671875 C 54.34375 -2.296875 53.863281 -3.222656 53.25 -4.453125 L 48.40625 -14.5 L 22.671875 -14.5 L 17.84375 -4.453125 C 17.21875 -3.222656 16.734375 -2.328125 16.390625 -1.765625 C 16.054688 -1.203125 15.5 -0.625 14.71875 -0.03125 C 13.945312 0.550781 12.957031 0.84375 11.75 0.84375 C 10.539062 0.84375 8.882812 0.3125 6.78125 -0.75 C 3.1875 -2.476562 1.390625 -4.457031 1.390625 -6.6875 C 1.390625 -7.738281 1.914062 -9.316406 2.96875 -11.421875 L 28.0625 -63.375 C 28.738281 -64.800781 29.773438 -65.945312 31.171875 -66.8125 C 32.566406 -67.675781 34.039062 -68.109375 35.59375 -68.109375 C 38.9375 -68.109375 41.410156 -66.5 43.015625 -63.28125 Z M 35.5 -40.984375 L 29.359375 -28.25 L 41.71875 -28.25 Z M 35.5 -40.984375 "/></g></g></g><g fill="#000000" fill-opacity="1"><g transform="translate(194.388828, 175.2875)"><g><path d="M 11.984375 -68.203125 L 29.171875 -68.109375 C 38.160156 -68.109375 46.0625 -64.867188 52.875 -58.390625 C 59.6875 -51.921875 63.09375 -43.960938 63.09375 -34.515625 C 63.09375 -25.066406 59.757812 -16.96875 53.09375 -10.21875 C 46.4375 -3.46875 38.375 -0.09375 28.90625 -0.09375 L 11.890625 -0.09375 C 8.109375 -0.09375 5.753906 -0.867188 4.828125 -2.421875 C 4.085938 -3.722656 3.71875 -5.703125 3.71875 -8.359375 L 3.71875 -60.03125 C 3.71875 -61.507812 3.765625 -62.585938 3.859375 -63.265625 C 3.953125 -63.953125 4.242188 -64.765625 4.734375 -65.703125 C 5.609375 -67.367188 8.023438 -68.203125 11.984375 -68.203125 Z M 29.171875 -16.546875 C 33.640625 -16.546875 37.664062 -18.203125 41.25 -21.515625 C 44.84375 -24.828125 46.640625 -28.988281 46.640625 -34 C 46.640625 -39.019531 44.890625 -43.21875 41.390625 -46.59375 C 37.890625 -49.976562 33.785156 -51.671875 29.078125 -51.671875 L 20.171875 -51.671875 L 20.171875 -16.546875 Z M 29.171875 -16.546875 "/></g></g></g><g fill="#000000" fill-opacity="1"><g transform="translate(194.839917, 235.660703)"><g><path d="M 24.265625 -202.453125 L 177.625 -202.453125 C 183.507812 -202.453125 187.828125 -201.757812 190.578125 -200.375 C 193.335938 -199 195.175781 -196.835938 196.09375 -193.890625 C 197.019531 -190.953125 197.484375 -187.09375 197.484375 -182.3125 C 197.484375 -177.53125 197.019531 -173.710938 196.09375 -170.859375 C 195.175781 -168.015625 193.613281 -166.039062 191.40625 -164.9375 C 188.101562 -163.28125 183.414062 -162.453125 177.34375 -162.453125 L 124.671875 -162.453125 L 124.671875 -23.71875 C 124.671875 -19.488281 124.53125 -16.363281 124.25 -14.34375 C 123.976562 -12.320312 123.148438 -9.976562 121.765625 -7.3125 C 120.390625 -4.644531 117.953125 -2.757812 114.453125 -1.65625 C 110.960938 -0.550781 106.367188 0 100.671875 0 C 94.972656 0 90.421875 -0.550781 87.015625 -1.65625 C 83.617188 -2.757812 81.226562 -4.644531 79.84375 -7.3125 C 78.46875 -9.976562 77.640625 -12.367188 77.359375 -14.484375 C 77.085938 -16.597656 76.953125 -19.769531 76.953125 -24 L 76.953125 -162.453125 L 24 -162.453125 C 18.113281 -162.453125 13.789062 -163.140625 11.03125 -164.515625 C 8.269531 -165.898438 6.429688 -168.0625 5.515625 -171 C 4.597656 -173.945312 4.140625 -177.8125 4.140625 -182.59375 C 4.140625 -187.375 4.597656 -191.1875 5.515625 -194.03125 C 6.429688 -196.882812 7.992188 -198.863281 10.203125 -199.96875 C 13.515625 -201.625 18.203125 -202.453125 24.265625 -202.453125 Z M 24.265625 -202.453125 "/></g></g></g><g fill="#000000" fill-opacity="1"><g transform="translate(322.99324, 237.500091)"><g><path d="M 43.015625 -63.28125 L 68.109375 -11.421875 C 69.160156 -9.316406 69.6875 -7.738281 69.6875 -6.6875 C 69.6875 -4.457031 67.890625 -2.445312 64.296875 -0.65625 C 62.191406 0.394531 60.535156 0.921875 59.328125 0.921875 C 58.117188 0.921875 57.128906 0.640625 56.359375 0.078125 C 55.585938 -0.472656 55.03125 -1.054688 54.6875 -1.671875 C 54.34375 -2.296875 53.863281 -3.222656 53.25 -4.453125 L 48.40625 -14.5 L 22.671875 -14.5 L 17.84375 -4.453125 C 17.21875 -3.222656 16.734375 -2.328125 16.390625 -1.765625 C 16.054688 -1.203125 15.5 -0.625 14.71875 -0.03125 C 13.945312 0.550781 12.957031 0.84375 11.75 0.84375 C 10.539062 0.84375 8.882812 0.3125 6.78125 -0.75 C 3.1875 -2.476562 1.390625 -4.457031 1.390625 -6.6875 C 1.390625 -7.738281 1.914062 -9.316406 2.96875 -11.421875 L 28.0625 -63.375 C 28.738281 -64.800781 29.773438 -65.945312 31.171875 -66.8125 C 32.566406 -67.675781 34.039062 -68.109375 35.59375 -68.109375 C 38.9375 -68.109375 41.410156 -66.5 43.015625 -63.28125 Z M 35.5 -40.984375 L 29.359375 -28.25 L 41.71875 -28.25 Z M 35.5 -40.984375 "/></g></g></g><g fill="#000000" fill-opacity="1"><g transform="translate(394.077172, 237.500091)"><g><path d="M 47.703125 -65.28125 C 48.296875 -66.363281 49.179688 -67.085938 50.359375 -67.453125 C 51.535156 -67.828125 53.003906 -68.015625 54.765625 -68.015625 C 56.535156 -68.015625 57.960938 -67.859375 59.046875 -67.546875 C 60.128906 -67.242188 60.929688 -66.875 61.453125 -66.4375 C 61.984375 -66 62.375 -65.347656 62.625 -64.484375 C 63 -63.492188 63.1875 -61.914062 63.1875 -59.75 L 63.1875 -8.171875 C 63.1875 -6.691406 63.140625 -5.609375 63.046875 -4.921875 C 62.953125 -4.242188 62.660156 -3.441406 62.171875 -2.515625 C 61.296875 -0.835938 58.878906 0 54.921875 0 C 52.503906 0 50.828125 -0.179688 49.890625 -0.546875 C 48.960938 -0.921875 48.191406 -1.515625 47.578125 -2.328125 C 33.640625 -20.910156 24.472656 -33.050781 20.078125 -38.75 L 20.078125 -8.171875 C 20.078125 -6.691406 20.03125 -5.609375 19.9375 -4.921875 C 19.84375 -4.242188 19.546875 -3.441406 19.046875 -2.515625 C 18.179688 -0.835938 15.765625 0 11.796875 0 C 7.960938 0 5.609375 -0.835938 4.734375 -2.515625 C 4.242188 -3.441406 3.953125 -4.273438 3.859375 -5.015625 C 3.765625 -5.765625 3.71875 -6.847656 3.71875 -8.265625 L 3.71875 -60.125 C 3.71875 -62.476562 4.007812 -64.195312 4.59375 -65.28125 C 5.1875 -66.363281 6.070312 -67.085938 7.25 -67.453125 C 8.425781 -67.828125 9.941406 -68.015625 11.796875 -68.015625 C 13.660156 -68.015625 15.132812 -67.84375 16.21875 -67.5 C 17.300781 -67.164062 18.054688 -66.78125 18.484375 -66.34375 C 18.734375 -66.15625 19.445312 -65.351562 20.625 -63.9375 C 33.695312 -46.15625 42.429688 -34.414062 46.828125 -28.71875 L 46.828125 -60.125 C 46.828125 -62.476562 47.117188 -64.195312 47.703125 -65.28125 Z M 47.703125 -65.28125 "/></g></g></g><g fill="#000000" fill-opacity="1"><g transform="translate(460.979734, 237.500091)"><g><path d="M 32.890625 -34.1875 C 42.367188 -25.082031 49.09375 -18.238281 53.0625 -13.65625 C 55.101562 -11.363281 56.125 -9.425781 56.125 -7.84375 C 56.125 -6.269531 54.882812 -4.414062 52.40625 -2.28125 C 49.925781 -0.144531 47.894531 0.921875 46.3125 0.921875 C 44.738281 0.921875 42.835938 -0.375 40.609375 -2.96875 L 20.171875 -26.296875 L 20.171875 -8.171875 C 20.171875 -6.691406 20.125 -5.609375 20.03125 -4.921875 C 19.9375 -4.242188 19.640625 -3.441406 19.140625 -2.515625 C 18.273438 -0.835938 15.859375 0 11.890625 0 C 7.554688 0 5.019531 -1.175781 4.28125 -3.53125 C 3.90625 -4.519531 3.71875 -6.097656 3.71875 -8.265625 L 3.71875 -59.9375 C 3.71875 -61.363281 3.765625 -62.429688 3.859375 -63.140625 C 3.953125 -63.847656 4.242188 -64.671875 4.734375 -65.609375 C 5.609375 -67.273438 8.023438 -68.109375 11.984375 -68.109375 C 16.316406 -68.109375 18.890625 -66.960938 19.703125 -64.671875 C 20.015625 -63.617188 20.171875 -62.007812 20.171875 -59.84375 L 20.171875 -42.09375 C 28.585938 -51.570312 35.398438 -59.347656 40.609375 -65.421875 C 42.773438 -67.960938 44.660156 -69.234375 46.265625 -69.234375 C 47.878906 -69.234375 49.925781 -68.160156 52.40625 -66.015625 C 54.882812 -63.878906 56.125 -62.019531 56.125 -60.4375 C 56.125 -58.863281 55.195312 -56.992188 53.34375 -54.828125 C 49.75 -50.671875 44.171875 -44.96875 36.609375 -37.71875 Z M 32.890625 -34.1875 "/></g></g></g></svg>